<svg width="79" height="73" viewBox="0 0 79 73" fill="none" xmlns="http://www.w3.org/2000/svg">
<path d="M53.0893 63.05C53.0893 63.05 53.0793 63.05 53.0693 63.05H25.9209C25.7113 63.05 25.5116 62.9503 25.3919 62.7708C25.2721 62.6014 25.2422 62.382 25.312 62.1826L26.6195 58.5436C26.7094 58.2844 26.9589 58.1149 27.2284 58.1149H51.7518C52.0213 58.1149 52.2708 58.2844 52.3607 58.5436L53.6283 62.043C53.6981 62.1427 53.738 62.2723 53.738 62.4019C53.738 62.7609 53.4486 63.05 53.0893 63.05ZM26.8391 61.7539H52.1411L51.2927 59.4209H27.6875L26.8491 61.7539H26.8391Z" fill="#3068F7"/>
<path d="M60.4352 72.9999H56.6724C56.4029 72.9999 56.1534 72.8305 56.0635 72.5712L48.5278 51.7241C48.458 51.5247 48.4879 51.3053 48.6077 51.1358C48.7275 50.9664 48.9271 50.8567 49.1367 50.8567H52.9594C53.2289 50.8567 53.4784 51.0262 53.5683 51.2854L61.0441 72.1326C61.1139 72.332 61.084 72.5513 60.9642 72.7208C60.8445 72.8903 60.6448 72.9999 60.4352 72.9999ZM57.1315 71.7039H59.517L52.5003 52.1528H50.0649L57.1315 71.7039Z" fill="#3068F7"/>
<path d="M22.3275 72.9999H18.5547C18.3451 72.9999 18.1454 72.9002 18.0257 72.7208C17.9059 72.5513 17.8759 72.332 17.9458 72.1326L25.4316 51.2854C25.5214 51.0262 25.771 50.8567 26.0404 50.8567H29.8532C30.0628 50.8567 30.2624 50.9564 30.3822 51.1358C30.502 51.3053 30.5319 51.5346 30.462 51.7241L22.9363 72.5712C22.8465 72.8305 22.597 72.9999 22.3275 72.9999ZM19.4829 71.7039H21.8783L28.9349 52.1528H26.5096L19.4829 71.7039Z" fill="#3068F7"/>
<path d="M70.4062 52.1528H8.59354C5.17004 52.1528 2.49512 49.4809 2.49512 46.0612V7.91611C2.49512 7.55719 2.78457 7.26807 3.14389 7.26807H75.8658C76.2251 7.26807 76.5146 7.55719 76.5146 7.91611V46.0512C76.5146 49.5307 73.8896 52.1528 70.4162 52.1528H70.4062ZM3.78267 8.56415V46.0612C3.78267 48.7929 5.84875 50.8567 8.58356 50.8567H70.4062C73.141 50.8567 75.2071 48.7929 75.2071 46.0512V8.56415H3.78267Z" fill="#3068F7"/>
<path d="M78.3512 8.5642H0.648768C0.28945 8.5642 0 8.27507 0 7.91616V4.28711C0 3.92819 0.28945 3.63904 0.648768 3.63904H78.3512C78.7105 3.63904 79 3.92819 79 4.28711V7.91616C79 8.27507 78.7105 8.5642 78.3512 8.5642ZM1.29754 7.26812H77.7025V4.93515H1.29754V7.26812Z" fill="#3068F7"/>
<path d="M41.3114 4.93514H37.6683C37.309 4.93514 37.0195 4.64602 37.0195 4.2871V2.46258C37.0195 1.01694 38.0376 0 39.4948 0C40.9521 0 41.9602 1.01694 41.9602 2.46258V4.2871C41.9602 4.64602 41.6707 4.93514 41.3114 4.93514ZM38.3171 3.63903H40.6626V2.46258C40.6626 1.73477 40.2234 1.29611 39.4948 1.29611C38.7662 1.29611 38.3171 1.73477 38.3171 2.46258V3.63903Z" fill="#3068F7"/>
<path d="M75.6164 46.1609H74.2989C73.231 46.1609 72.3526 45.2635 72.3526 44.1868L72.3726 42.0732C70.9852 41.7442 69.6577 41.2157 68.4301 40.5079L66.9928 41.9236C66.2143 42.6813 64.9766 42.6713 64.2181 41.9037L61.6629 39.3314C60.9044 38.5637 60.9143 37.3175 61.6729 36.5598L63.0303 35.2238C62.2618 33.9477 61.6929 32.5917 61.3335 31.176H59.487C58.4091 31.176 57.5308 30.2887 57.5308 29.202L57.5607 25.5629C57.5607 24.4961 58.439 23.6188 59.527 23.6188H61.3735C61.7527 22.203 62.3416 20.8471 63.1202 19.6009L61.7827 18.2549C61.4134 17.8761 61.2138 17.3776 61.2138 16.8591C61.2138 16.3407 61.4234 15.8522 61.7927 15.4933L64.3778 12.941C65.1563 12.1832 66.3939 12.1932 67.1525 12.9609L68.5698 14.4065C69.8174 13.7086 71.1449 13.2002 72.5323 12.8811V10.7775C72.5522 9.70071 73.4406 8.82336 74.5185 8.82336H75.826C76.1853 8.8433 76.4748 9.13245 76.4648 9.49136C76.4648 9.85028 76.1754 10.1294 75.816 10.1294H74.5085C74.1492 10.1195 73.8398 10.4186 73.8298 10.7874V13.4095C73.8198 13.7186 73.6003 13.9878 73.2908 14.0476C71.7039 14.3467 70.1867 14.925 68.7894 15.7724C68.5299 15.922 68.2005 15.8921 67.9909 15.6727L66.2143 13.8682C65.9647 13.6189 65.5356 13.6189 65.2761 13.8682L62.691 16.4205C62.5712 16.5401 62.5013 16.6996 62.5013 16.8791C62.5013 17.0586 62.5712 17.228 62.691 17.3576L64.3977 19.0725C64.6173 19.2918 64.6472 19.6308 64.4776 19.89C63.5394 21.2758 62.8806 22.8012 62.5013 24.4363C62.4315 24.7354 62.172 24.9448 61.8725 24.9448H59.507C59.1377 24.9348 58.8383 25.2239 58.8383 25.5829L58.8083 29.2219C58.8083 29.5808 59.1078 29.8899 59.4671 29.8899H61.8326C62.142 29.8999 62.4015 30.1192 62.4614 30.4183C62.8107 32.0334 63.4495 33.5688 64.3778 34.9945C64.5474 35.2537 64.5075 35.5927 64.2879 35.812L62.5612 37.5069C62.3017 37.7661 62.3017 38.1849 62.5612 38.4541L65.1164 41.0263C65.3759 41.2855 65.7951 41.2855 66.0546 41.0263L67.8512 39.2616C68.0608 39.0523 68.3901 39.0124 68.6496 39.1719C70.027 40.0293 71.5342 40.6275 73.1311 40.9466C73.4306 41.0064 73.6502 41.2756 73.6502 41.5846L73.6302 44.2167C73.6302 44.5756 73.9296 44.8847 74.279 44.8847H75.5965C75.9558 44.8947 76.2452 45.1937 76.2352 45.5527C76.2352 45.9116 75.9458 46.2007 75.5865 46.2007L75.6164 46.1609Z" fill="#3068F7"/>
<path d="M75.7358 35.3833C75.7358 35.3833 75.7058 35.3833 75.6859 35.3833C71.5238 35.0742 68.2799 31.5847 68.2999 27.4372C68.3298 23.2897 71.6236 19.8401 75.7857 19.5809C76.155 19.5609 76.4544 19.8301 76.4744 20.189C76.4943 20.5479 76.2249 20.857 75.8655 20.877C72.3821 21.0863 69.6274 23.9776 69.5974 27.4472C69.5775 30.9167 72.2923 33.8379 75.7757 34.0971C76.135 34.127 76.4045 34.4361 76.3746 34.795C76.3446 35.134 76.0652 35.3932 75.7258 35.3932L75.7358 35.3833Z" fill="#3068F7"/>
<path d="M26.4647 46.8588C18.4867 46.8588 11.9771 40.3682 11.9771 32.3948C11.9771 24.4215 18.4715 17.9459 26.4647 17.9459C27.0097 17.9459 27.4487 18.3847 27.4487 18.9294V31.4114H39.9381C40.4831 31.4114 40.9221 31.8501 40.9221 32.3948C40.9221 40.3682 34.4428 46.8588 26.4647 46.8588ZM25.4807 19.9431C19.0316 20.4423 13.9451 25.8436 13.9451 32.3948C13.9451 39.2788 19.5615 44.8919 26.4647 44.8919C33.3679 44.8919 38.4091 39.8083 38.9087 33.3782H26.4647C25.9197 33.3782 25.4807 32.9395 25.4807 32.3948V19.9431Z" fill="#3068F7"/>
<path d="M42.9623 29.9099H29.8989C29.3705 29.9099 28.9448 29.4568 28.9448 28.8943V14.9736C28.9448 14.4111 29.3705 13.958 29.8989 13.958C37.6195 13.958 43.9164 20.6606 43.9164 28.8943C43.9164 29.4568 43.4907 29.9099 42.9623 29.9099ZM30.853 27.8788H41.9642C41.4945 21.5824 36.7682 16.536 30.853 16.036V27.8788Z" fill="#3068F7"/>
</svg>
