<svg width="78" height="58" viewBox="0 0 78 58" fill="none" xmlns="http://www.w3.org/2000/svg">
<path d="M39 49.5455C30.3602 49.5455 21.0457 46.1935 12.0714 39.8453C5.35222 35.0928 1.21114 30.392 1.03811 30.1911L0 29.003L1.03811 27.8148C1.21114 27.6197 5.35222 22.9131 12.0714 18.1606C21.0457 11.8124 30.3545 8.46045 39 8.46045C47.6455 8.46045 56.9543 11.8124 65.9285 18.1606C72.6477 22.9131 76.7888 27.6139 76.9618 27.8148L78 29.003L76.9618 30.1911C76.7888 30.3862 72.6477 35.0928 65.9285 39.8453C56.9543 46.1935 47.6455 49.5455 39 49.5455ZM4.89662 29.003C6.5173 30.6617 9.82207 33.8243 14.2515 36.9468C20.0594 41.0449 29.0741 45.9294 39 45.9294C48.9259 45.9294 57.9406 41.0449 63.7485 36.9468C68.1779 33.8186 71.4827 30.6617 73.1034 29.003C71.4827 27.3442 68.1779 24.1816 63.7485 21.0592C57.9406 16.961 48.9259 12.0765 39 12.0765C29.0741 12.0765 20.0594 16.961 14.2515 21.0592C9.82207 24.1873 6.5173 27.3442 4.89662 29.003Z" fill="#3068F7"/>
<path d="M39.0002 48.6729C28.0996 48.6729 19.2349 39.8509 19.2349 29.0028C19.2349 18.1547 28.0996 9.33276 39.0002 9.33276C49.9008 9.33276 58.7655 18.1547 58.7655 29.0028C58.7655 39.8509 49.9008 48.6729 39.0002 48.6729ZM39.0002 12.9488C30.1067 12.9488 22.8684 20.1522 22.8684 29.0028C22.8684 37.8535 30.1067 45.0569 39.0002 45.0569C47.8937 45.0569 55.1319 37.8535 55.1319 29.0028C55.1319 20.1522 47.8937 12.9488 39.0002 12.9488Z" fill="#3068F7"/>
<path d="M39.6171 42.4109L39.4557 38.8006C40.3439 38.7604 41.2205 38.6054 42.0568 38.3299L43.1815 41.768C42.0337 42.1411 40.8341 42.3592 39.6171 42.4109ZM34.8474 41.7738C33.6939 41.4007 32.5981 40.8784 31.583 40.2126L33.5843 37.1935C34.3225 37.6813 35.1242 38.0659 35.9663 38.3357L34.8474 41.7738ZM47.4206 39.4894L45.154 36.6654C45.8461 36.1144 46.4632 35.4715 46.9823 34.7598L49.9179 36.8835C49.2085 37.8593 48.3665 38.7317 47.4206 39.4894ZM28.0994 36.9065C27.3842 35.9307 26.8017 34.8631 26.3749 33.7381L29.772 32.4639C30.0834 33.2847 30.5044 34.0653 31.0293 34.777L28.0936 36.9065H28.0994ZM52.0115 32.5672L48.5107 31.6087C48.7471 30.765 48.8625 29.8868 48.8625 28.9971V28.9512H52.496V28.9971C52.496 30.2082 52.3345 31.4078 52.0115 32.5672ZM29.1433 29.0201H25.5098V28.9971C25.5098 27.7975 25.6712 26.6037 25.9827 25.4557L29.4894 26.4085C29.2587 27.2465 29.1433 28.1189 29.1433 29.0029V29.0258V29.0201ZM48.2223 25.5188C47.9108 24.6981 47.4841 23.9175 46.9592 23.2057L49.8891 21.0705C50.6043 22.0463 51.1868 23.1082 51.6194 24.2331L48.2223 25.5188ZM31.012 23.2517L28.0706 21.1337C28.78 20.1579 29.622 19.2798 30.5621 18.5279L32.8345 21.3461C32.1424 21.8971 31.5311 22.5399 31.0062 23.2574L31.012 23.2517ZM44.4042 20.7951C43.6602 20.3129 42.8585 19.9283 42.0222 19.6586L43.1354 16.2147C44.2889 16.5821 45.3904 17.1044 46.4055 17.7702L44.41 20.7893L44.4042 20.7951ZM35.9259 19.6758L34.7955 16.2377C35.9432 15.8646 37.1429 15.6465 38.3541 15.5891L38.527 19.1994C37.6388 19.2396 36.7622 19.4003 35.9259 19.6758Z" fill="#3068F7"/>
<path d="M45.1226 30.0012C45.6692 26.65 43.3825 23.4924 40.0151 22.9484C36.6477 22.4045 33.4748 24.6801 32.9282 28.0313C32.3816 31.3825 34.6683 34.5401 38.0357 35.0841C41.4031 35.628 44.576 33.3524 45.1226 30.0012Z" fill="#3068F7"/>
<path d="M40.7361 58.0001L40.6092 54.3898C41.5782 54.3554 42.5586 54.2922 43.5333 54.1946L43.8851 57.7935C42.8354 57.8968 41.7742 57.9656 40.7303 58.0001H40.7361ZM36.52 57.9714C35.4818 57.9197 34.4264 57.8336 33.3767 57.7188L33.7804 54.1258C34.7551 54.2348 35.7357 54.3152 36.6988 54.3611L36.52 57.9714ZM48.0493 57.2252L47.4149 53.6666C48.3723 53.5001 49.3412 53.2992 50.2986 53.0754L51.1292 56.5939C50.1026 56.8349 49.0701 57.0473 48.0493 57.2252ZM29.2241 57.0932C28.2091 56.8981 27.1766 56.6742 26.1558 56.4217L27.0324 52.9147C27.9899 53.15 28.9588 53.3624 29.9104 53.5461L29.2298 57.099L29.2241 57.0932ZM55.1665 55.4976L54.0937 52.0422C55.0223 51.7553 55.9624 51.4396 56.8967 51.1009L58.1367 54.4988C57.1504 54.8547 56.1469 55.1934 55.1665 55.4918V55.4976ZM22.1301 55.2795C21.1553 54.9638 20.1576 54.6194 19.1771 54.252L20.4517 50.8656C21.3803 51.21 22.3203 51.5371 23.2431 51.8356L22.1301 55.2737V55.2795ZM62.0125 52.9721L60.5706 49.6545C61.4646 49.27 62.3758 48.8567 63.2698 48.4262L64.8501 51.6806C63.91 52.1341 62.9526 52.5646 62.0125 52.9721ZM15.3243 52.6851C14.39 52.2718 13.4384 51.8299 12.504 51.3707L14.1132 48.1278C15.0071 48.564 15.9127 48.9887 16.8009 49.3848L15.3243 52.6908V52.6851ZM68.5413 49.7865L66.7995 46.6182C67.6589 46.1533 68.5298 45.6539 69.3891 45.1488L71.2463 48.254C70.3523 48.7821 69.441 49.2987 68.5471 49.7923L68.5413 49.7865ZM8.82433 49.4421C7.93037 48.9485 7.03069 48.4205 6.13672 47.8867L8.01694 44.793C8.87053 45.3095 9.73564 45.8089 10.595 46.2853L8.82433 49.4421Z" fill="#3068F7"/>
<path d="M8.02866 13.2129L6.14844 10.1192C7.0424 9.57962 7.94209 9.05729 8.83605 8.56367L10.6067 11.7205C9.75313 12.1969 8.88802 12.6963 8.02866 13.2129ZM69.3893 12.8627C68.5357 12.3576 67.6648 11.8583 66.7997 11.3934L68.5473 8.22503C69.447 8.71291 70.3525 9.2295 71.2465 9.76329L69.3893 12.8685V12.8627ZM14.1134 9.87808L12.5042 6.63513C13.4385 6.17595 14.3902 5.734 15.3303 5.315L16.8068 8.62107C15.9128 9.01712 15.0073 9.43612 14.1191 9.87808H14.1134ZM63.2757 9.57962C62.3818 9.14914 61.4705 8.73587 60.5766 8.35131L62.0184 5.03374C62.9586 5.43552 63.9102 5.87174 64.856 6.32518L63.2757 9.57962ZM20.4634 7.12874L19.1888 3.7423C20.1693 3.37496 21.1671 3.03059 22.1475 2.7149L23.2606 6.15874C22.3321 6.45721 21.392 6.78436 20.4634 7.12874ZM56.9084 6.89915C55.9741 6.56051 55.0339 6.24483 54.1054 5.95785L55.1782 2.50252C56.1586 2.80672 57.1564 3.13963 58.1426 3.4955L56.9027 6.89343L56.9084 6.89915ZM27.0442 5.0854L26.1675 1.57843C27.1941 1.32588 28.2265 1.10202 29.2416 0.90687L29.9222 4.45977C28.9705 4.6377 28.0016 4.85007 27.0442 5.09114V5.0854ZM50.3103 4.93043C49.3529 4.70658 48.384 4.50569 47.4266 4.33924L48.061 0.780595C49.0818 0.958527 50.1143 1.17664 51.1409 1.41197L50.3103 4.93043ZM33.7979 3.87432L33.3942 0.281241C34.4439 0.166447 35.5051 0.0803493 36.5433 0.0286917L36.7221 3.63899C35.7589 3.68491 34.7726 3.76527 33.7979 3.87432ZM43.5508 3.80545C42.5761 3.70787 41.5898 3.64474 40.6266 3.6103L40.7536 0C41.7917 0.0344384 42.8529 0.109047 43.9026 0.206622L43.5508 3.80545Z" fill="#3068F7"/>
</svg>
