<svg width="78" height="59" viewBox="0 0 78 59" fill="none" xmlns="http://www.w3.org/2000/svg">
<path d="M35.893 56.7553H6.56982V50.9999H30.144V29.721H56.0201V7.6604H61.7691V35.4764H35.893V56.7553Z" fill="#3068F7"/>
<path d="M69.5887 18.847L58.8946 8.141L48.2007 18.847L44.1348 14.7765L58.8946 0L73.6546 14.7765L69.5887 18.847Z" fill="#3068F7"/>
<path d="M18.4771 23.613C21.8787 20.2076 21.8787 14.6864 18.4771 11.281C15.0756 7.87567 9.56058 7.87567 6.15904 11.281C2.75749 14.6864 2.7575 20.2076 6.15904 23.613C9.56058 27.0184 15.0756 27.0184 18.4771 23.613Z" fill="#3068F7"/>
<path d="M73.9251 41.0876L60.1021 54.9263L64.1672 58.996L77.9902 45.1573L73.9251 41.0876Z" fill="#3068F7"/>
<path d="M64.1769 41.0915L60.1118 45.1613L73.9349 58.9999L78 54.9302L64.1769 41.0915Z" fill="#3068F7"/>
</svg>
