<svg width="55" height="75" viewBox="0 0 55 75" fill="none" xmlns="http://www.w3.org/2000/svg">
<path d="M21.0435 50.0659L15.7417 52.5605L10.6733 64.8647L22.8457 75L26.6193 58.1369L24.5546 55.1481L21.0435 50.0659Z" fill="#3068F7"/>
<path d="M34.4289 50.0659L39.7306 52.5605L44.799 64.8647L32.6267 75L28.8589 58.1369L30.9178 55.1481L34.4289 50.0659Z" fill="#3068F7"/>
<path d="M47.4645 27.4462L41.8887 23.5909L44.7991 17.4853L38.0393 16.9271L37.4969 10.1877L31.367 13.0718L27.5175 7.50122L23.6565 13.0602L17.5324 10.1586L16.9725 16.8922L10.2127 17.433L13.1056 23.5502L7.52393 27.3822L13.0939 31.2375L10.1835 37.3431L16.9375 37.9013L17.4741 44.6407L19.9995 43.4545L23.6098 41.7565L27.4534 47.3272L28.1999 46.2514L31.3145 41.774L37.4386 44.6814L37.9985 37.942L44.7583 37.407L41.8654 31.2898L47.4529 27.4578L47.4645 27.4462ZM31.4195 28.4405L33.8458 35.8835L27.4942 31.284L21.1427 35.8835L23.569 28.4405L17.2175 23.841H25.0679L27.4942 16.3979L29.9205 23.841H37.771L31.4195 28.4405Z" fill="#3068F7"/>
<path d="M27.4533 54.8341L22.1575 47.1643L13.7121 51.1358L12.9714 41.8553L3.6628 41.0878L7.67549 32.6795L0 27.3705L7.693 22.0906L3.70943 13.6707L13.018 12.9322L13.7938 3.65173L22.2275 7.65235L27.5467 0L32.8425 7.6698L41.2879 3.69824L42.0286 12.9787L51.3372 13.7463L47.3245 22.1546L55 27.4636L47.307 32.7435L51.2906 41.1634L41.982 41.9019L41.2121 51.1824L32.7784 47.1817L27.4592 54.8341H27.4533ZM22.8632 44.5476L27.4592 51.1998L32.0785 44.5592L39.3982 48.0307L40.0689 39.9771L48.1469 39.3375L44.6882 32.0282L51.3606 27.4461L44.6999 22.8408L48.1819 15.5431L40.1039 14.8744L39.4565 6.82082L32.131 10.269L27.535 3.61684L22.9157 10.2574L15.596 6.78593L14.9253 14.8337L6.84729 15.4791L10.3059 22.7884L3.63361 27.3705L10.2943 31.9759L6.8123 39.2735L14.8844 39.9422L15.526 47.9958L22.8574 44.5476H22.8632Z" fill="#3068F7"/>
</svg>
