<svg width="72" height="70" viewBox="0 0 72 70" fill="none" xmlns="http://www.w3.org/2000/svg">
<path d="M35.689 42.2461C35.0866 42.2461 34.5072 42.0268 34.0597 41.6287C33.5605 41.1902 33.2622 40.5844 33.222 39.9208C33.1819 39.3266 33.354 38.7438 33.7097 38.2649L36.9455 33.9145C32 31.6759 26.8652 32.3394 25.1268 35.5878C23.2679 39.0612 26.0103 44.1789 31.2541 47.0119C36.4923 49.8448 42.2467 49.3255 44.1056 45.8521C45.4366 43.3596 44.4039 40.0189 41.7705 37.2841L37.4217 41.5421C36.957 41.998 36.3431 42.2461 35.6948 42.2461H35.689Z" fill="#3068F7"/>
<path d="M53.7211 53.4801C49.7337 60.9404 37.3356 62.0597 26.0906 55.9784C14.8398 49.8971 8.93046 38.8826 12.9178 31.4223C16.9052 23.962 29.3034 22.8427 40.5484 28.924C40.5714 28.9356 40.5943 28.9529 40.6173 28.9644L43.2564 25.416C42.8892 25.2025 42.522 24.9948 42.1434 24.7929C25.7234 15.919 7.63384 17.5518 1.81627 28.4394C-4.0013 39.3269 4.62178 55.4014 21.036 64.2811C37.456 73.155 55.5456 71.5221 61.3632 60.6346C66.2341 51.5242 60.9845 38.7903 49.533 29.6683L46.3029 32.8301C53.6695 39.0326 56.9512 47.4276 53.7154 53.4801H53.7211Z" fill="#3068F7"/>
<path d="M52.1261 24.7119L61.7246 24.1118L72 12.3184L60.4279 13.0858L58.7813 11.6376L58.0183 0L47.7429 11.7934L48.374 21.4231L44.748 26.3043C45.9299 27.0371 47.0659 27.8045 48.1502 28.6007L52.1204 24.7119H52.1261Z" fill="#3068F7"/>
<path d="M40.4907 36.1069L44.9428 31.745C44.0535 31.0757 43.1126 30.4353 42.1258 29.8352L38.4941 34.7222C39.2113 35.1434 39.8825 35.6107 40.4907 36.1127V36.1069Z" fill="#3068F7"/>
<path d="M35.0868 39.3035C34.9778 39.4535 34.9261 39.6324 34.9376 39.8055C34.9491 40.0016 35.0351 40.1863 35.19 40.3248C35.3335 40.4517 35.5113 40.5094 35.6834 40.5094C35.8728 40.5094 36.0621 40.4402 36.2055 40.2959L40.4855 36.1071C39.8774 35.6109 39.2119 35.1435 38.489 34.7166L35.081 39.2977L35.0868 39.3035Z" fill="#3068F7"/>
<path d="M48.1563 28.6006C47.072 27.7986 45.936 27.0312 44.7541 26.3042L42.1265 29.8353C43.1133 30.4353 44.0542 31.0758 44.9435 31.7451L48.1563 28.6006Z" fill="#3068F7"/>
</svg>
