<svg width="52" height="72" viewBox="0 0 52 72" fill="none" xmlns="http://www.w3.org/2000/svg">
<path d="M33.0217 42.1904V48.933H20.1725V42.4333L17.9517 40.2648L17.4009 39.727V51.6914H35.7876V39.3743C35.7238 39.4379 35.66 39.5073 35.5904 39.5709C34.7439 40.4267 33.8857 41.2941 33.0159 42.1789L33.0217 42.1904Z" fill="#3068F7"/>
<path d="M25.901 36.1245H27.6579C28.5509 35.1703 29.3859 34.2567 30.1918 33.3604H23.4541C23.8252 33.7767 24.1963 34.1988 24.5732 34.6268C25.0081 35.1241 25.4546 35.6214 25.901 36.1245Z" fill="#3068F7"/>
<path d="M38.2168 26.6524C35.9264 28.9886 34.0419 31.134 32.0473 33.3603C31.2413 34.2624 30.4179 35.176 29.5424 36.1244C28.661 37.0843 27.7275 38.0732 26.7012 39.114C25.814 38.1194 24.921 37.1132 24.0455 36.1244C23.2105 35.1818 22.3871 34.2508 21.5986 33.3603C21.2912 33.0133 20.9897 32.6721 20.694 32.3425C20.2881 32.6953 19.8938 33.0307 19.5111 33.3603C18.7747 33.9964 18.0789 34.592 17.3947 35.1818C16.9946 35.523 16.6003 35.8642 16.2061 36.2054V36.6391C16.6003 37.0265 17.0004 37.4139 17.3947 37.8014C18.3225 38.7093 19.2502 39.6113 20.1664 40.5019C22.3756 42.6588 24.5325 44.7579 26.533 46.7125C28.8523 44.4225 30.963 42.2945 33.0098 40.2185C33.9434 39.276 34.8595 38.3449 35.7814 37.4082C37.8746 35.2859 39.9795 33.1637 42.2582 30.9084C41.1043 29.6941 39.8171 28.3409 38.2052 26.6466L38.2168 26.6524Z" fill="#3068F7"/>
<path d="M45.5696 9.3042H38.6405L43.2966 16.1856H45.8247V65.107H6.1695V16.1856H8.69759L13.3537 9.3042H6.42463C2.87601 9.3042 0 12.1724 0 15.7114V65.5927C0 69.1317 2.87601 71.9999 6.42463 71.9999H45.5754C49.124 71.9999 52 69.1317 52 65.5927V15.7114C52 12.1724 49.124 9.3042 45.5754 9.3042H45.5696Z" fill="#3068F7"/>
<path d="M38.9537 16.1857L34.2976 9.30432L31.7637 5.55714L31.6477 5.60919C31.6303 2.51546 29.1022 0 25.9943 0C22.8863 0 20.3582 2.51546 20.3408 5.60919L20.2249 5.55714L17.691 9.30432L13.0349 16.1857L11.707 18.1518L25.9943 18.2328L40.2815 18.1518L38.9479 16.1857H38.9537ZM26.0001 3.66043C27.096 3.66043 27.9831 4.54518 27.9831 5.6381C27.9831 6.73103 27.096 7.61577 26.0001 7.61577C24.9042 7.61577 24.017 6.72524 24.017 5.6381C24.017 4.55096 24.91 3.66043 26.0001 3.66043Z" fill="#3068F7"/>
</svg>
