<svg width="74" height="60" viewBox="0 0 74 60" fill="none" xmlns="http://www.w3.org/2000/svg">
<path d="M59.5743 18.8011C61.3871 16.9773 61.3871 14.0203 59.5743 12.1965C57.7615 10.3726 54.8223 10.3726 53.0095 12.1965C51.1966 14.0203 51.1966 16.9773 53.0095 18.8011C54.8223 20.6249 57.7615 20.6249 59.5743 18.8011Z" fill="#3068F7"/>
<path d="M42.531 7.35954C43.0281 4.29528 40.962 1.40578 37.9162 0.905641C34.8704 0.405497 31.9983 2.4841 31.5012 5.54836C31.0041 8.61261 33.0702 11.5021 36.116 12.0023C39.1617 12.5024 42.0339 10.4238 42.531 7.35954Z" fill="#3068F7"/>
<path d="M73.513 11.8505C72.8631 11.1967 71.807 11.1967 71.1571 11.8505L62.4707 20.5896C62.4707 20.5896 61.8672 21.185 61.1767 21.8739V21.8389C60.9214 21.7863 60.6603 21.7454 60.3876 21.7338V21.7162H52.4787C52.0957 21.7162 51.7244 21.763 51.3646 21.8389C50.6857 21.1675 50.1229 20.6071 50.1055 20.5896L47.0939 17.5598C46.3802 18.2661 45.4112 19.2294 44.7207 19.9124L47.7496 22.9597C47.7902 23.0006 50.5116 25.6976 51.2312 26.4156V58.1087C51.2312 59.1478 52.0725 59.9943 53.1054 59.9943C54.1382 59.9943 54.9796 59.1478 54.9796 58.1087V42.3468H57.4283V58.1087C57.4283 59.1478 58.2697 59.9943 59.3025 59.9943C60.3354 59.9943 61.1767 59.1478 61.1767 58.1087V26.5849C61.2174 26.5324 64.7801 23.0005 64.8265 22.9538L73.513 14.2148C74.1629 13.5609 74.1629 12.4985 73.513 11.8446V11.8505Z" fill="#3068F7"/>
<path d="M17.7153 20.1692C15.1506 20.1692 13.0732 18.0793 13.0732 15.499C13.0732 12.9188 15.1506 10.8289 17.7153 10.8289C20.28 10.8289 22.3573 12.9188 22.3573 15.499C22.3573 18.0793 20.28 20.1692 17.7153 20.1692Z" fill="#3068F7"/>
<path d="M0.487415 11.8505C1.1373 11.1967 2.19336 11.1967 2.84325 11.8505L11.5297 20.5896C11.5297 20.5896 12.1331 21.185 12.8236 21.8739V21.8389C13.0789 21.7863 13.3401 21.7454 13.6128 21.7338V21.7162H21.5217C21.9046 21.7162 22.276 21.763 22.6358 21.8389C23.3147 21.1675 23.8775 20.6071 23.8949 20.5896L26.9065 17.5598C27.6202 18.2661 28.5892 19.2294 29.2797 19.9124L26.2508 22.9597C26.2101 23.0006 23.4887 25.6976 22.7692 26.4156V58.1087C22.7692 59.1478 21.9279 59.9943 20.895 59.9943C19.8621 59.9943 19.0208 59.1478 19.0208 58.1087V42.3468H16.5721V58.1087C16.5721 59.1478 15.7307 59.9943 14.6979 59.9943C13.665 59.9943 12.8236 59.1478 12.8236 58.1087V26.5849C12.783 26.5324 9.22026 23.0005 9.17384 22.9538L0.487415 14.2148C-0.162472 13.5609 -0.162472 12.4985 0.487415 11.8446V11.8505Z" fill="#3068F7"/>
<path d="M57.7298 2.04904C56.9465 1.26095 55.6757 1.26095 54.8924 2.04904L44.4362 12.5687C44.4362 12.5687 43.7109 13.2867 42.8753 14.1157V14.0689C42.5678 14.0047 42.2486 13.958 41.9295 13.9405V13.923H32.4133C31.9549 13.923 31.5081 13.9814 31.0729 14.0689C30.2547 13.2575 29.5816 12.5862 29.5584 12.5628L19.1022 2.04322C18.3189 1.25512 17.0481 1.25512 16.2648 2.04322C15.4814 2.83131 15.4814 4.10977 16.2648 4.89786L26.721 15.4175C26.7732 15.47 30.0458 18.7158 30.9104 19.5798V57.7294C30.9104 58.9845 31.92 60.0003 33.1676 60.0003C34.4151 60.0003 35.4248 58.9845 35.4248 57.7294V38.7567H38.3725V57.7294C38.3725 58.9845 39.3821 60.0003 40.6297 60.0003C41.8772 60.0003 42.8869 58.9845 42.8869 57.7294V19.7899C42.9391 19.7257 47.2214 15.4759 47.2794 15.4175L57.7356 4.89786C58.519 4.10977 58.519 2.83131 57.7356 2.04322L57.7298 2.04904Z" fill="#3068F7"/>
</svg>
