<svg width="118" height="118" viewBox="0 0 118 118" fill="none" xmlns="http://www.w3.org/2000/svg">
<circle cx="59" cy="59" r="55.5" stroke="white" stroke-width="7"/>
<path d="M73.75 31.9583L59 43.9768L44.25 31.9583M43.66 86.0416H74.34C79.2965 86.0416 81.7747 86.0416 83.6678 85.0592C85.3331 84.195 86.6869 82.816 87.5354 81.12C88.5 79.1918 88.5 76.6677 88.5 71.6194V58.3991C88.5 53.3508 88.5 50.8267 87.5354 48.8985C86.6869 47.2024 85.3331 45.8235 83.6678 44.9593C81.7747 43.9768 79.2965 43.9768 74.34 43.9768H43.66C38.7035 43.9768 36.2253 43.9768 34.3322 44.9593C32.6669 45.8235 31.3131 47.2024 30.4646 48.8985C29.5 50.8267 29.5 53.3508 29.5 58.3991V71.6194C29.5 76.6677 29.5 79.1918 30.4646 81.12C31.3131 82.816 32.6669 84.195 34.3322 85.0592C36.2253 86.0416 38.7035 86.0416 43.66 86.0416Z" stroke="white" stroke-width="7.375" stroke-linecap="round" stroke-linejoin="round"/>
</svg>
